# xmcd
#
# Track frame offsets: 
#        150
#        14868
#        27961
#        40770
#        54210
#        68671
#        84322
#        96737
#        110362
#        126313
#        140839
#        152782
#        164740
#        179659
#
# Disc length: 2607 seconds
#
# Revision: 2
# Processed by: cddbd v1.5.2PL0 Copyright (c) Steve Scherf et al.
# Submitted via: ExactAudioCopy v1.0b4
#
DISCID=ca0a2d0e
DTITLE=Waldick Soriano - Ao Vivo
DYEAR=1900
DGENRE=Other
TTITLE0=Paixão De Um Homem
TTITLE1=Perfume De Gardênia
TTITLE2=Tortura De Amor
TTITLE3=Angústia
TTITLE4=Carente De Amor
TTITLE5=Fujo De Ti
TTITLE6=Vestida De Branco
TTITLE7=Recado Baiano
TTITLE8=Depois De Você Mais Ninguém
TTITLE9=Eu Vou Ter Sempre Você
TTITLE10=Sonhando Contigo (Soñando Contigo)
TTITLE11=Garçon Por Gentileza
TTITLE12=Dama De Vermelho
TTITLE13=Eu Não Sou Cachorro Não
EXTD=
EXTT0=
EXTT1=
EXTT2=
EXTT3=
EXTT4=
EXTT5=
EXTT6=
EXTT7=
EXTT8=
EXTT9=
EXTT10=
EXTT11=
EXTT12=
EXTT13=
PLAYORDER=
